<svg xmlns='http://www.w3.org/2000/svg' viewBox="0 0 24 24" fill="none" class="dig-UIIcon dig-UIIcon--standard dwg-plan-card__icon dwg-plan-card__plan-type-icon" width="24" height="24" focusable="false"><path fill-rule="evenodd" clip-rule="evenodd" d="M3 15.5H8.25L9 14H4.5V12.6477C4.50005 12.5983 4.50183 12.549 4.50529 12.5C4.54129 11.9906 4.75966 11.5092 5.12308 11.1458C5.52146 10.7474 6.0616 10.5233 6.625 10.5227H10.7986L11.535 9.05H11.5356C11.721 8.55824 11.7955 8.00654 11.7955 7.43182C11.7955 6.36885 11.5409 5.38459 10.8003 4.71278C10.0792 4.05865 9.21521 4 8.75 4C8.28479 4 7.42078 4.05865 6.69967 4.71278C5.95909 5.38459 5.70455 6.36885 5.70455 7.43182C5.70455 8.01887 5.78218 8.58192 5.97646 9.08158C5.25629 9.21294 4.58721 9.56035 4.06242 10.0851C3.38313 10.7644 3.00105 11.6854 3 12.6461V15.5ZM10.2955 7.43182C10.2955 8.27011 10.0975 8.75061 9.81097 9.02273C9.51222 9.30646 9.11722 9.36364 8.75 9.36364C8.38278 9.36364 7.98778 9.30646 7.68903 9.02273C7.40252 8.75061 7.20455 8.27011 7.20455 7.43182C7.20455 5.71945 8.03059 5.5 8.75 5.5C9.46941 5.5 10.2955 5.71945 10.2955 7.43182Z" fill="currentColor"></path><path fill-rule="evenodd" clip-rule="evenodd" d="M21.0098 20H9.53175V17.1496C9.53279 16.1904 9.91429 15.2708 10.5926 14.5925C11.1154 14.0696 11.7818 13.7231 12.4991 13.5913C12.3063 13.0935 12.2293 12.5329 12.2293 11.9488C12.2293 10.888 12.4833 9.90504 13.2231 9.23392C13.9435 8.58048 14.8065 8.52198 15.2708 8.52198C15.735 8.52198 16.5981 8.58048 17.3184 9.23392C18.0582 9.90504 18.3122 10.888 18.3122 11.9488C18.3122 12.5329 18.2352 13.0935 18.0424 13.5913C18.7598 13.7231 19.4261 14.0696 19.949 14.5925C20.6272 15.2708 21.0087 16.1904 21.0098 17.1496L21.0098 17.1512V20ZM13.1513 15.0317C12.5893 15.0323 12.0506 15.2558 11.6532 15.6532C11.2917 16.0147 11.074 16.4934 11.0373 17C11.0337 17.0502 11.0318 17.1006 11.0317 17.1512V18.5H19.5098V17.1512C19.5097 17.1006 19.5078 17.0502 19.5042 17C19.4675 16.4934 19.2499 16.0147 18.8883 15.6532C18.491 15.2558 17.9522 15.0323 17.3903 15.0317H13.1513ZM16.333 13.5317C16.6166 13.2596 16.8122 12.781 16.8122 11.9488C16.8122 10.2409 15.9883 10.022 15.2708 10.022C14.5532 10.022 13.7293 10.2409 13.7293 11.9488C13.7293 12.781 13.9249 13.2596 14.2085 13.5317C14.5069 13.8181 14.9028 13.8756 15.2708 13.8756C15.6387 13.8756 16.0346 13.8181 16.333 13.5317Z" fill="currentColor"></path></svg>